<?xml version="1.0" encoding="UTF-8"?>
<svg id="Layer_1" data-name="Layer 1" xmlns="http://www.w3.org/2000/svg" viewBox="0 0 368 368">
  <g id="Layer_1-2" data-name="Layer 1-2">
    <path d="M94.6,253.66c0-48,39.9-86.7,89.4-86.7s89.4,36.6,89.4,86.7-40.2,87.3-89.4,87.3-89.4-36.9-89.4-87.3h0ZM214.1,307.66c18.3-6,17.7-32.4,6.9-59.4-11.1-27.6-40.8-60.3-65.1-52.2-17.4,5.7-18.6,33.6-5.4,63.9,12.5,29.1,39.9,55.5,63.6,47.7h0Z"/>
  </g>
  <g id="Layer_2" data-name="Layer 2">
    <path d="M176.9,134.85c-3,0-6.3-.2-10-1-8-1.7-10.6-5.4-9.5-13.5,1.1-8.3,2.9-16.5,4.2-24.8,2-13,.9-25.9-2.2-38.7-1.4-5.7-2.2-11.5-2.7-17.3-.5-5.2,1.6-8.3,6.6-9.9,10.5-3.3,20.7-3.4,31.3-.7,5.7,1.5,7.7,4.8,7.3,10.7-.2,3.2-.4,6.5-1.5,9.5-5.5,16.2-4,32.5-1.1,48.9,1.3,7.5,2,15.2,2.6,22.9.5,6.3-1.5,9.2-7.3,11.7-2,.8-4.3,1.5-6.4,1.7-3.4.5-6.9.4-11.3.5h0Z"/>
  </g>
</svg>