<?xml version="1.0" encoding="UTF-8"?>
<svg id="Layer_1" xmlns="http://www.w3.org/2000/svg" version="1.1" viewBox="0 0 771.73 325">
  <!-- Generator: Adobe Illustrator 30.2.1, SVG Export Plug-In . SVG Version: 2.1.1 Build 1)  -->
  <g id="Layer_1-2">
    <path d="M5,232.38c0-48,39.9-86.7,89.4-86.7s89.4,36.6,89.4,86.7-40.2,87.3-89.4,87.3S5,282.78,5,232.38h0ZM124.5,286.38c18.3-6,17.7-32.4,6.9-59.4-11.1-27.6-40.8-60.3-65.1-52.2-17.4,5.7-18.6,33.6-5.4,63.9,12.5,29.1,39.9,55.5,63.6,47.7h0Z"/>
    <path d="M200.4,303.48c0-14.1,15.3-12.6,26.1-27,7.5-9.9,9.3-21,9.3-40.2,0-36-20.4-33.6-28.8-47.7-3.9-6.6-.9-13.2,5.4-18,7.2-5.4,14.1-5.4,27.6-13.8,15.6-9.9,23.4-17.4,34.2-13.8,10.8,3.3,10.8,18.9,8.1,36.6-.6,3.3-.9,6.9-1.2,10.5,16.8-27.3,48.6-51.3,65.7-53.7,9.3-1.2,15.9-.6,15.3,8.7-.3,5.4-5.4,27.6-4.5,45.9.9,17.1,6.6,33.9-4.5,38.4-12,4.8-19.2-16.8-30-27.9-11.1-11.4-41.4-10.2-43.5,37.5.6,19.8,2.7,28.8,9.3,37.5,11.1,14.4,34.5,8.4,34.2,25.8-.3,9.9-8.4,15.3-17.4,15.3s-29.1-2.4-42-2.4-29.7,2.4-45,2.4c-11.1,0-18.3-6.3-18.3-14.1h0Z"/>
    <path d="M377.2,232.38c0-48,35.7-87,81-87,24,0,38.1,10.8,46.8,23.1v-14.7c0-53.4-27-30.6-32.1-46.2-5.1-15.9,7.2-13.8,39-25.5,19.5-7.2,33-23.1,44.1-12.9,10.5,9.6-7.2,31.2-7.2,108.4v37.2c0,25.2,4.2,44.7,12.9,58.2,12.6,19.8,22.2,24.9,10.2,36.9s-22.5,7.5-53.7-13.8c-12.9,14.7-30.9,23.7-54,23.7-48.3-.1-87-37-87-87.4h0ZM478.9,288.78c20.1.3,29.7-19.2,28.5-48.3-1.2-29.7-16.2-65.1-46.2-66-22.5-.9-29.7,20.1-27.9,53.1,2.1,31.5,19.5,60.9,45.6,61.2h0Z"/>
    <path d="M584.6,232.38c0-48,39.9-86.7,89.4-86.7s89.4,36.6,89.4,86.7-40.2,87.3-89.4,87.3-89.4-36.9-89.4-87.3h0ZM704,286.38c18.3-6,17.7-32.4,6.9-59.4-11.1-27.6-40.8-60.3-65.1-52.2-17.4,5.7-18.6,33.6-5.4,63.9,12.6,29.1,39.9,55.5,63.6,47.7h0Z"/>
  </g>
  <g id="Layer_2">
    <path d="M87.3,113.58c-3,0-6.3-.2-10-1-8-1.7-10.6-5.4-9.5-13.5,1.1-8.3,2.9-16.5,4.2-24.8,2-13,.9-25.9-2.2-38.7-1.4-5.7-2.2-11.5-2.7-17.3-.5-5.2,1.6-8.3,6.6-9.9,10.5-3.3,20.7-3.4,31.3-.7,5.7,1.5,7.7,4.8,7.3,10.7-.2,3.2-.4,6.5-1.5,9.5-5.5,16.2-4,32.5-1.1,48.9,1.3,7.5,2,15.2,2.6,22.9.5,6.3-1.5,9.2-7.3,11.7-2,.8-4.3,1.5-6.4,1.7-3.4.5-6.9.4-11.3.5h0Z"/>
  </g>
</svg>